<svg width="114.000000" height="36.000000" viewBox="0 0 114 36" fill="none" xmlns="http://www.w3.org/2000/svg" xmlns:xlink="http://www.w3.org/1999/xlink">
	<desc>
			Created with Pixso.
	</desc>
	<defs/>
	<path id="Vector" d="M9.65 22.91L9.63 17.24L6.88 21.86L5.53 21.86L2.78 17.36L2.78 22.91L0 22.91L0 12.2L2.49 12.2L6.25 18.38L9.92 12.2L12.42 12.2L12.45 22.91L9.65 22.91ZM51.86 20.57L51.86 22.91L43.26 22.91L43.26 12.2L51.66 12.2L51.66 14.54L46.26 14.54L46.26 16.35L51.02 16.35L51.02 18.61L46.26 18.61L46.26 20.57L51.86 20.57ZM64.8 12.2L64.8 22.91L62.31 22.91L57.58 17.21L57.58 22.91L54.61 22.91L54.61 12.2L57.11 12.2L61.83 17.91L61.83 12.2L64.8 12.2ZM78.2 12.2L78.2 22.91L75.7 22.91L70.98 17.21L70.98 22.91L68.01 22.91L68.01 12.2L70.5 12.2L75.23 17.91L75.23 12.2L78.2 12.2ZM81.4 12.2L84.43 12.2L84.43 22.91L81.4 22.91L81.4 12.2ZM92.6 23.13C91.01 23.13 89.77 22.69 88.88 21.83Q88.74 21.68 88.61 21.53Q87.57 20.27 87.57 18.14L87.57 12.2L90.6 12.2L90.6 18.05C90.6 19.76 91.27 20.62 92.63 20.62C93.98 20.62 94.65 19.76 94.65 18.05L94.65 12.2L97.63 12.2L97.63 18.14C97.63 19.73 97.19 20.96 96.3 21.83C95.42 22.69 94.19 23.13 92.6 23.13ZM110.42 22.91L110.39 17.24L107.64 21.86L106.29 21.86L103.56 17.39L103.56 22.91L100.76 22.91L100.76 12.2L103.25 12.2L107.01 18.38L110.68 12.2L113.18 12.2L113.21 22.91L110.42 22.91Z" fill="#2A2367" fill-opacity="1.000000" fill-rule="evenodd"/>
	<rect id="Rectangle 2" x="16.700195" y="12.081543" width="4.461900" height="10.836042" fill="#6B5AF9" fill-opacity="1.000000"/>
	<rect id="Rectangle 3" x="25.624023" y="4.432617" width="4.461900" height="26.133984" fill="#6B5AF9" fill-opacity="1.000000"/>
	<rect id="Rectangle 4" x="34.547852" y="-0.029297" width="4.461900" height="35.057785" fill="#6B5AF9" fill-opacity="1.000000"/>
</svg>
