<svg width="12.565918" height="12.565918" viewBox="0 0 12.5659 12.5659" fill="none" xmlns="http://www.w3.org/2000/svg" xmlns:xlink="http://www.w3.org/1999/xlink">
	<desc>
			Created with Pixso.
	</desc>
	<defs/>
	<path id="Vector" d="M12.17 10.28C12.69 10.81 12.69 11.65 12.17 12.17C11.91 12.43 11.57 12.56 11.23 12.56C10.89 12.56 10.54 12.43 10.28 12.17L6.28 8.16L2.27 12.17C2.01 12.43 1.67 12.56 1.33 12.56C0.99 12.56 0.65 12.43 0.39 12.17C-0.14 11.65 -0.14 10.81 0.39 10.28L4.39 6.28L0.39 2.27C-0.14 1.75 -0.14 0.91 0.39 0.39C0.91 -0.14 1.75 -0.14 2.27 0.39L6.28 4.39L10.28 0.39C10.81 -0.14 11.65 -0.14 12.17 0.39C12.69 0.91 12.69 1.75 12.17 2.27L8.16 6.28L12.17 10.28Z" fill="#363636" fill-opacity="1.000000" fill-rule="nonzero"/>
</svg>
