<svg width="17.000000" height="16.000000" viewBox="0 0 17 16" fill="none" xmlns="http://www.w3.org/2000/svg" xmlns:xlink="http://www.w3.org/1999/xlink">
	<desc>
			Created with Pixso.
	</desc>
	<defs/>
	<path id="Vector" d="M16.2 11.44L13.86 9.1C13.02 8.26 11.6 8.6 11.27 9.69C11.02 10.44 10.18 10.86 9.43 10.69C7.75 10.27 5.49 8.1 5.07 6.34C4.82 5.58 5.32 4.75 6.08 4.5C7.17 4.16 7.5 2.74 6.66 1.9L4.32 -0.44C3.65 -1.03 2.65 -1.03 2.06 -0.44L0.47 1.15C-1.12 2.82 0.64 7.26 4.57 11.19C8.5 15.13 12.94 16.97 14.61 15.29L16.2 13.7C16.79 13.03 16.79 12.03 16.2 11.44Z" fill="#FFFFFF" fill-opacity="1.000000" fill-rule="nonzero"/>
</svg>
